<svg width="72" height="26" viewBox="0 0 72 26" fill="none" xmlns="http://www.w3.org/2000/svg">
<g filter="url(#filter0_d)">
<path d="M67.7952 0.971924H4.62109V17.9259H67.7952V0.971924Z" fill="#364556"/>
<path d="M19.4213 5.62256H17.418V13.2759H19.4213C20.7049 13.2759 21.5121 12.7021 21.5121 10.9809V7.91758C21.5218 6.09907 20.6466 5.62256 19.4213 5.62256ZM20.102 10.8836C20.102 11.6324 19.8297 11.9631 19.3337 11.9631H18.828V6.92567H19.3435C19.8005 6.92567 20.0923 7.15906 20.0923 8.00511V10.8836H20.102Z" fill="white"/>
<path d="M25.4909 9.9301C26.0938 9.64809 26.5023 9.11323 26.5023 7.97544V7.8004C26.5023 6.44867 25.9479 5.62207 24.567 5.62207H22.3984V13.2754H23.7891V10.2218H24.1975L25.1602 13.2754H26.6384L25.4909 9.9301ZM25.063 8.02407C25.063 8.67562 24.8199 9.00626 24.3434 9.00626H23.7891V6.92518H24.3434C24.8685 6.92518 25.063 7.24609 25.063 7.9171V8.02407Z" fill="white"/>
<path d="M28.7265 13.2754V5.62207H27.3164V13.2754H28.7265Z" fill="white"/>
<path d="M34.0464 5.62207H32.6363L31.8389 9.74534L31.7028 10.6789L31.5958 9.74534L30.7595 5.62207H29.3008L31.0998 13.2754H32.296L34.0464 5.62207Z" fill="white"/>
<path d="M38.1101 13.2754V11.9723H35.9804V10.0662H37.7795V8.77287H35.9804V6.92518H38.1101V5.62207H34.5703V13.2754H38.1101Z" fill="white"/>
<path d="M42.6362 7.57669C42.6362 6.14716 41.9263 5.55396 40.7496 5.55396C39.6021 5.55396 38.8047 6.24441 38.8047 7.78091H40.1467C40.1661 6.96403 40.3995 6.76954 40.7399 6.76954C41.1192 6.76954 41.2942 6.98348 41.2942 7.56696C41.2942 8.0532 41.1386 8.40329 40.8955 8.78255L38.863 12.0306V13.2656H42.5876V12.0403H40.3995L41.936 9.5897C42.3639 8.88952 42.6362 8.35466 42.6362 7.57669Z" fill="white"/>
<path d="M49.0515 9.9301C49.6544 9.64809 50.0628 9.11323 50.0628 7.97544V7.8004C50.0628 6.44867 49.5085 5.62207 48.1374 5.62207H45.9688V13.2754H47.3594V10.2218H47.7678L48.7208 13.2754H50.199L49.0515 9.9301ZM48.6236 8.02407C48.6236 8.67562 48.3902 9.00626 47.904 9.00626H47.3497V6.92518H47.904C48.4291 6.92518 48.6236 7.24609 48.6236 7.9171V8.02407Z" fill="white"/>
<path d="M54.9863 11.029V5.62207H53.5762V10.9804C53.5762 11.7389 53.4304 12.0306 52.8955 12.0306C52.3606 12.0306 52.2148 11.7389 52.2148 10.9804V5.62207H50.8047V11.029C50.8047 12.6919 51.6118 13.3435 52.8955 13.3435C54.1889 13.3435 54.9863 12.6822 54.9863 11.029Z" fill="white"/>
<path d="M43.6758 12.0405H44.9108V13.2756H43.6758V12.0405Z" fill="white"/>
</g>
<defs>
<filter id="filter0_d" x="0.621094" y="0.971924" width="71.1741" height="24.9539" filterUnits="userSpaceOnUse" color-interpolation-filters="sRGB">
<feFlood flood-opacity="0" result="BackgroundImageFix"/>
<feColorMatrix in="SourceAlpha" type="matrix" values="0 0 0 0 0 0 0 0 0 0 0 0 0 0 0 0 0 0 127 0"/>
<feOffset dy="4"/>
<feGaussianBlur stdDeviation="2"/>
<feColorMatrix type="matrix" values="0 0 0 0 0 0 0 0 0 0 0 0 0 0 0 0 0 0 0.25 0"/>
<feBlend mode="normal" in2="BackgroundImageFix" result="effect1_dropShadow"/>
<feBlend mode="normal" in="SourceGraphic" in2="effect1_dropShadow" result="shape"/>
</filter>
</defs>
</svg>
