<svg width="54" height="21" viewBox="0 0 54 21" fill="none" xmlns="http://www.w3.org/2000/svg">
<path d="M53.74 15.4825C53.74 18.3802 51.39 20.7302 48.4923 20.7302H27.7243C24.8266 20.7302 22.4766 18.3802 22.4766 15.4825V5.34368C22.4766 2.44596 24.8266 0.0959473 27.7243 0.0959473H48.4923C51.39 0.0959473 53.74 2.44596 53.74 5.34368V15.4825Z" fill="#364556"/>
<path d="M27.687 16.5524V5.59836H25.5195V3.43091H31.731V5.59836H29.5657V16.5545H27.687V16.5524ZM37.605 6.698V16.5524H35.8834V15.5737C35.5204 16.4016 34.9896 16.8156 34.2891 16.8156C33.1619 16.8156 32.5972 16.0238 32.5972 14.4401V6.698H34.2912V13.1367C34.2912 13.6653 34.3209 14.0431 34.3825 14.2703C34.4908 14.663 34.7094 14.8583 35.0342 14.8583C35.3866 14.8583 35.6223 14.646 35.739 14.2193C35.8027 13.9752 35.8367 13.5655 35.8367 12.9923V6.698H37.605ZM39.1186 16.5524V3.43091H40.8742V7.53229C41.1672 6.80202 41.6639 6.43689 42.3624 6.43689C43.254 6.43689 43.8378 7.07375 44.1137 8.34322C44.2538 8.98433 44.3239 10.0946 44.3239 11.6719C44.3239 13.2046 44.2475 14.3 44.0946 14.9581C43.8059 16.1957 43.2158 16.8135 42.3263 16.8135C41.5833 16.8135 41.0695 16.3825 40.7872 15.5206V16.5502L39.1186 16.5524ZM41.7404 8.34959C41.2606 8.34959 40.9655 8.85484 40.8551 9.86532C40.8318 10.0691 40.8233 10.793 40.8233 12.037C40.8233 12.9966 40.8424 13.5952 40.8827 13.833C40.9974 14.5654 41.2818 14.9326 41.7404 14.9326C42.1671 14.9326 42.4261 14.4847 42.5195 13.5867C42.5428 13.3999 42.5534 12.7545 42.5534 11.6528C42.5534 10.5128 42.5449 9.86108 42.5258 9.70186C42.4345 8.80176 42.1713 8.34959 41.7404 8.34959ZM48.9857 13.1706H50.6352C50.6352 13.2152 50.6373 13.281 50.6416 13.3617C50.6458 13.4445 50.6479 13.5082 50.6479 13.5527C50.6479 14.6885 50.4378 15.5143 50.0196 16.0344C49.5992 16.5524 48.9496 16.8135 48.0665 16.8135C47.1537 16.8135 46.4956 16.4972 46.0944 15.8688C45.7759 15.3678 45.5721 14.6397 45.483 13.6801C45.4426 13.2598 45.4235 12.468 45.4235 11.3046C45.4235 10.3684 45.4426 9.70186 45.483 9.30488C45.5615 8.49819 45.7335 7.88681 46.001 7.46648C46.4383 6.78079 47.1409 6.43689 48.1111 6.43689C49.0452 6.43689 49.7287 6.80839 50.1618 7.5514C50.5121 8.15217 50.6861 9.36645 50.6861 11.1921V11.9394H47.2386C47.2259 12.0476 47.2195 12.2578 47.2195 12.5699C47.2195 13.3022 47.2492 13.8266 47.3108 14.1387C47.4381 14.7819 47.6993 15.1024 48.0962 15.1024C48.6906 15.1024 48.9857 14.4592 48.9857 13.1706ZM47.2259 10.3769H48.9263V9.96085C48.9263 9.39404 48.8859 8.9907 48.8074 8.75294C48.6864 8.37294 48.438 8.18401 48.0665 8.18401C47.7566 8.18401 47.5358 8.3135 47.4042 8.57462C47.2471 8.89729 47.1813 9.36008 47.2089 9.96085L47.2174 10.0967C47.2237 10.1922 47.2259 10.2856 47.2259 10.3769Z" fill="white"/>
<path d="M3.34567 16.6267V11.0329L0.683594 3.43091H2.77886L4.31582 8.3963L5.83155 3.43091H7.86738L5.25201 11.0308V16.6267H3.34567ZM8.5191 11.6761C8.5191 9.96934 8.64859 8.75931 8.90758 8.0439C9.29395 6.98247 10.0582 6.45175 11.2003 6.45175C12.3403 6.45175 13.1087 6.98247 13.4993 8.0439C13.7583 8.75294 13.8878 9.96297 13.8878 11.6761C13.8878 13.3872 13.7583 14.5993 13.4993 15.3062C13.1087 16.3613 12.3424 16.8899 11.2003 16.8899C10.0582 16.8899 9.29395 16.3592 8.90758 15.2977C8.64859 14.5908 8.5191 13.3829 8.5191 11.6761ZM10.3299 11.8056C10.3299 13.0326 10.3363 13.6992 10.349 13.8075C10.4403 14.6927 10.7205 15.1343 11.1875 15.1343C11.6546 15.1343 11.9412 14.7543 12.0452 13.9964C12.0664 13.8308 12.077 13.211 12.077 12.1389V11.173C12.077 10.1689 12.0643 9.56387 12.0388 9.35795C11.9284 8.60434 11.6503 8.22859 11.2003 8.22859C10.763 8.22859 10.4912 8.55976 10.3809 9.22209C10.3469 9.43226 10.3278 9.98845 10.3278 10.8907L10.3299 11.8056ZM20.2161 6.71711V16.6267H18.486V15.6416C18.1208 16.4738 17.5859 16.8899 16.8832 16.8899C15.7496 16.8899 15.1807 16.0938 15.1807 14.5017V6.71711H16.8853V13.1919C16.8853 13.7226 16.915 14.1026 16.9766 14.3297C17.087 14.7246 17.3056 14.922 17.6326 14.922C17.9871 14.922 18.2227 14.7076 18.3416 14.2788C18.4053 14.0325 18.4393 13.6228 18.4393 13.0454V6.71711H20.2161Z" fill="#364556"/>
</svg>
