<svg width="28" height="28" viewBox="0 0 28 28" fill="none" xmlns="http://www.w3.org/2000/svg">
<g filter="url(#filter0_d)">
<path d="M23.9496 5.79186C23.9042 4.76246 23.7377 4.05476 23.4993 3.44153C23.2533 2.79059 22.8748 2.20782 22.379 1.72335C21.8945 1.23134 21.3079 0.849035 20.6645 0.606876C20.0477 0.368413 19.3437 0.201947 18.3143 0.156561C17.2772 0.107331 16.948 0.0959473 14.3176 0.0959473C11.6873 0.0959473 11.3581 0.107331 10.3248 0.152717C9.29542 0.198103 8.58772 0.364717 7.97463 0.603032C7.32355 0.849035 6.74078 1.2275 6.25631 1.72335C5.7643 2.20782 5.38214 2.79444 5.13984 3.43783C4.90137 4.05476 4.73491 4.75862 4.68952 5.78801C4.64029 6.8251 4.62891 7.15433 4.62891 9.78467C4.62891 12.415 4.64029 12.7442 4.68568 13.7775C4.73106 14.8069 4.89768 15.5146 5.13614 16.1278C5.38214 16.7787 5.7643 17.3615 6.25631 17.846C6.74078 18.338 7.3274 18.7203 7.97079 18.9625C8.58772 19.2009 9.29158 19.3674 10.3211 19.4128C11.3542 19.4583 11.6836 19.4696 14.3139 19.4696C16.9443 19.4696 17.2735 19.4583 18.3067 19.4128C19.3361 19.3674 20.0438 19.2009 20.6569 18.9625C21.9589 18.4591 22.9883 17.4297 23.4917 16.1278C23.73 15.5109 23.8967 14.8069 23.942 13.7775C23.9874 12.7442 23.9988 12.415 23.9988 9.78467C23.9988 7.15433 23.995 6.8251 23.9496 5.79186ZM22.2049 13.7018C22.1633 14.648 22.0043 15.1589 21.8719 15.4995C21.5463 16.3435 20.8765 17.0134 20.0325 17.3389C19.6918 17.4714 19.1772 17.6303 18.2348 17.6718C17.2129 17.7174 16.9064 17.7286 14.3215 17.7286C11.7365 17.7286 11.4262 17.7174 10.408 17.6718C9.46188 17.6303 8.95096 17.4714 8.61034 17.3389C8.19033 17.1837 7.80802 16.9377 7.49771 16.616C7.17601 16.3018 6.93001 15.9234 6.77478 15.5033C6.64231 15.1627 6.48339 14.648 6.44185 13.7056C6.39631 12.6838 6.38508 12.3772 6.38508 9.79221C6.38508 7.20726 6.39631 6.89695 6.44185 5.87893C6.48339 4.93277 6.64231 4.42184 6.77478 4.08122C6.93001 3.66107 7.17601 3.2789 7.50155 2.96844C7.81556 2.64675 8.19402 2.40074 8.61418 2.24566C8.9548 2.1132 9.46957 1.95427 10.4119 1.91258C11.4338 1.8672 11.7404 1.85581 14.3252 1.85581C16.914 1.85581 17.2204 1.8672 18.2386 1.91258C19.1848 1.95427 19.6957 2.1132 20.0363 2.24566C20.4563 2.40074 20.8386 2.64675 21.1489 2.96844C21.4706 3.2826 21.7166 3.66107 21.8719 4.08122C22.0043 4.42184 22.1633 4.93647 22.2049 5.87893C22.2503 6.90079 22.2617 7.20726 22.2617 9.79221C22.2617 12.3772 22.2503 12.6799 22.2049 13.7018Z" fill="#364556"/>
<path d="M14.3167 4.80786C11.5691 4.80786 9.33984 7.03697 9.33984 9.78469C9.33984 12.5324 11.5691 14.7615 14.3167 14.7615C17.0644 14.7615 19.2935 12.5324 19.2935 9.78469C19.2935 7.03697 17.0644 4.80786 14.3167 4.80786ZM14.3167 13.013C12.5342 13.013 11.0883 11.5673 11.0883 9.78469C11.0883 8.00205 12.5342 6.55634 14.3167 6.55634C16.0993 6.55634 17.545 8.00205 17.545 9.78469C17.545 11.5673 16.0993 13.013 14.3167 13.013Z" fill="#364556"/>
<path d="M20.6521 4.61108C20.6521 5.2527 20.1318 5.77295 19.49 5.77295C18.8484 5.77295 18.3281 5.2527 18.3281 4.61108C18.3281 3.96932 18.8484 3.44922 19.49 3.44922C20.1318 3.44922 20.6521 3.96932 20.6521 4.61108V4.61108Z" fill="#364556"/>
</g>
<defs>
<filter id="filter0_d" x="0.628906" y="0.0959473" width="27.3699" height="27.3736" filterUnits="userSpaceOnUse" color-interpolation-filters="sRGB">
<feFlood flood-opacity="0" result="BackgroundImageFix"/>
<feColorMatrix in="SourceAlpha" type="matrix" values="0 0 0 0 0 0 0 0 0 0 0 0 0 0 0 0 0 0 127 0"/>
<feOffset dy="4"/>
<feGaussianBlur stdDeviation="2"/>
<feColorMatrix type="matrix" values="0 0 0 0 0 0 0 0 0 0 0 0 0 0 0 0 0 0 0.25 0"/>
<feBlend mode="normal" in2="BackgroundImageFix" result="effect1_dropShadow"/>
<feBlend mode="normal" in="SourceGraphic" in2="effect1_dropShadow" result="shape"/>
</filter>
</defs>
</svg>
